<?xml version="1.0" encoding="iso-8859-1"?>
<!-- Generator: Adobe Illustrator 18.0.0, SVG Export Plug-In . SVG Version: 6.00 Build 0)  -->
<!DOCTYPE svg PUBLIC "-//W3C//DTD SVG 1.1//EN" "http://www.w3.org/Graphics/SVG/1.1/DTD/svg11.dtd">
<svg version="1.1" id="Capa_1" xmlns="http://www.w3.org/2000/svg" xmlns:xlink="http://www.w3.org/1999/xlink" x="0px" y="0px"
	 viewBox="0 0 59.998 59.998" style="enable-background:new 0 0 59.998 59.998;" xml:space="preserve">
<path d="M54.613,38.998H38.999v-6h-4v-6.242c0-2.138,0.922-4.146,2.466-5.374c2.882-2.289,4.534-5.71,4.534-9.384
	c0-3.416-1.463-6.68-4.013-8.955c-2.548-2.274-5.975-3.357-9.394-2.964c-5.353,0.609-9.761,4.922-10.481,10.254
	c-0.57,4.224,1.057,8.333,4.353,10.993c1.587,1.281,2.535,3.38,2.535,5.613v6.059h-4v6H5.385c-1.315,0-2.386,1.07-2.386,2.386
	v11.229c0,1.315,1.07,2.386,2.386,2.386h0.705c0.478,2.833,2.942,5,5.91,5h36c2.967,0,5.431-2.167,5.91-5h0.705
	c1.315,0,2.386-1.07,2.386-2.386V41.384C56.999,40.069,55.929,38.998,54.613,38.998z M23.72,19.77
	c-2.747-2.217-4.103-5.645-3.626-9.169c0.6-4.438,4.27-8.026,8.726-8.535c2.899-0.326,5.681,0.547,7.835,2.47
	c2.126,1.896,3.345,4.616,3.345,7.463c0,3.061-1.377,5.91-3.778,7.818c-2.048,1.628-3.222,4.157-3.222,6.939v6.242h-6V26.94
	C26.999,24.066,25.804,21.452,23.72,19.77z M22.999,34.998h2h10h2v4h-14V34.998z M47.999,57.998h-36c-1.86,0-3.429-1.276-3.873-3
	h43.746C51.428,56.722,49.86,57.998,47.999,57.998z M54.999,52.613c0,0.213-0.173,0.386-0.386,0.386h-0.614h-48H5.385
	c-0.213,0-0.386-0.173-0.386-0.386V41.384c0-0.213,0.173-0.386,0.386-0.386h15.614h18h15.614c0.213,0,0.386,0.173,0.386,0.386
	V52.613z"/>
<g>
</g>
<g>
</g>
<g>
</g>
<g>
</g>
<g>
</g>
<g>
</g>
<g>
</g>
<g>
</g>
<g>
</g>
<g>
</g>
<g>
</g>
<g>
</g>
<g>
</g>
<g>
</g>
<g>
</g>
</svg>
